<svg xmlns="http://www.w3.org/2000/svg" width="400.834" height="192.589" viewBox="0 0 400.834 192.589">
  <g id="Group_2725" data-name="Group 2725" transform="translate(245.217 473)">
    <path id="Path_74" data-name="Path 74" d="M64.105,162.915H56.281v6.376h9.09v1.956H53.9V153.186H65.248v1.956H56.281v5.817h7.824Z" transform="translate(-245.217 -473)" fill="#4f5358" fill-rule="evenodd"/>
    <rect id="Rectangle_13" data-name="Rectangle 13" width="2.295" height="19.052" transform="translate(-175.443 -320.806)" fill="#4f5358"/>
    <path id="Path_73" data-name="Path 73" d="M82.91,171.5a5.876,5.876,0,0,1-4.441-1.791,6.67,6.67,0,0,1-1.71-4.8v-.423a8.056,8.056,0,0,1,.762-3.564,5.919,5.919,0,0,1,2.134-2.456,5.36,5.36,0,0,1,2.972-.89,5.033,5.033,0,0,1,4.068,1.724,7.485,7.485,0,0,1,1.453,4.94v.957H79.054a4.753,4.753,0,0,0,1.16,3.2,3.651,3.651,0,0,0,2.823,1.219,4.006,4.006,0,0,0,2.058-.495,5.208,5.208,0,0,0,1.478-1.308l1.4,1.092A5.645,5.645,0,0,1,82.91,171.5m-.283-12.041a3.056,3.056,0,0,0-2.333,1.017,4.95,4.95,0,0,0-1.164,2.844h6.723v-.173a4.408,4.408,0,0,0-.944-2.723,2.881,2.881,0,0,0-2.282-.965" transform="translate(-245.217 -473)" fill="#4f5358" fill-rule="evenodd"/>
    <path id="Path_72" data-name="Path 72" d="M97.774,169.621a3.3,3.3,0,0,0,2.147-.741,2.593,2.593,0,0,0,1.016-1.858h2.172a4.183,4.183,0,0,1-.792,2.2,5.3,5.3,0,0,1-1.956,1.664,5.676,5.676,0,0,1-2.587.618,5.539,5.539,0,0,1-4.361-1.829,7.318,7.318,0,0,1-1.617-5.009v-.385a8.1,8.1,0,0,1,.72-3.484,5.487,5.487,0,0,1,2.066-2.371,5.856,5.856,0,0,1,3.18-.843,5.389,5.389,0,0,1,3.755,1.351,4.846,4.846,0,0,1,1.592,3.51h-2.172a3.156,3.156,0,0,0-.987-2.143,3.058,3.058,0,0,0-2.188-.838,3.218,3.218,0,0,0-2.71,1.257,5.935,5.935,0,0,0-.961,3.646v.432a5.776,5.776,0,0,0,.957,3.573,3.225,3.225,0,0,0,2.726,1.253" transform="translate(-245.217 -473)" fill="#4f5358" fill-rule="evenodd"/>
    <path id="Path_71" data-name="Path 71" d="M110.416,154.582v3.252h2.5v1.778h-2.5v8.319a1.857,1.857,0,0,0,.335,1.211,1.406,1.406,0,0,0,1.139.4,5.618,5.618,0,0,0,1.092-.148v1.859a6.842,6.842,0,0,1-1.761.246,2.85,2.85,0,0,1-2.32-.932,3.984,3.984,0,0,1-.779-2.638v-8.319h-2.448v-1.778h2.448v-3.252Z" transform="translate(-245.217 -473)" fill="#4f5358" fill-rule="evenodd"/>
    <path id="Path_70" data-name="Path 70" d="M123.676,159.879a6.74,6.74,0,0,0-1.126-.089,3.021,3.021,0,0,0-3.065,1.922v9.534H117.19V157.834h2.231l.038,1.545a3.58,3.58,0,0,1,3.2-1.8,2.351,2.351,0,0,1,1.016.173Z" transform="translate(-245.217 -473)" fill="#4f5358" fill-rule="evenodd"/>
    <path id="Path_68" data-name="Path 68" d="M129.886,171.246h-2.295V157.834h2.295ZM127.4,154.265a1.4,1.4,0,0,1,.338-.948,1.525,1.525,0,0,1,2.028,0,1.365,1.365,0,0,1,.347.948,1.321,1.321,0,0,1-.347.936,1.568,1.568,0,0,1-2.028,0,1.356,1.356,0,0,1-.338-.936" transform="translate(-245.217 -473)" fill="#4f5358" fill-rule="evenodd"/>
    <path id="Path_67" data-name="Path 67" d="M140.529,169.621a3.3,3.3,0,0,0,2.147-.741,2.593,2.593,0,0,0,1.016-1.858h2.171a4.173,4.173,0,0,1-.791,2.2,5.3,5.3,0,0,1-1.956,1.664,5.676,5.676,0,0,1-2.587.618,5.538,5.538,0,0,1-4.361-1.829,7.318,7.318,0,0,1-1.617-5.009v-.385a8.1,8.1,0,0,1,.719-3.484,5.494,5.494,0,0,1,2.066-2.371,5.859,5.859,0,0,1,3.18-.843,5.39,5.39,0,0,1,3.756,1.351,4.842,4.842,0,0,1,1.591,3.51h-2.171a3.156,3.156,0,0,0-.987-2.143,3.059,3.059,0,0,0-2.189-.838,3.22,3.22,0,0,0-2.71,1.257,5.942,5.942,0,0,0-.961,3.646v.432a5.782,5.782,0,0,0,.957,3.573,3.227,3.227,0,0,0,2.727,1.253" transform="translate(-245.217 -473)" fill="#4f5358" fill-rule="evenodd"/>
    <path id="Path_65" data-name="Path 65" d="M158.336,171.246a4.862,4.862,0,0,1-.322-1.41A5.116,5.116,0,0,1,154.2,171.5a4.725,4.725,0,0,1-3.256-1.122,3.635,3.635,0,0,1-1.27-2.845,3.786,3.786,0,0,1,1.592-3.255,7.5,7.5,0,0,1,4.484-1.16h2.231v-1.055a2.586,2.586,0,0,0-.716-1.917,2.9,2.9,0,0,0-2.121-.712,3.373,3.373,0,0,0-2.062.618,1.829,1.829,0,0,0-.83,1.5H149.94a3.183,3.183,0,0,1,.711-1.943,4.9,4.9,0,0,1,1.939-1.482,6.5,6.5,0,0,1,2.685-.547,5.292,5.292,0,0,1,3.632,1.161,4.16,4.16,0,0,1,1.363,3.192v6.177a7.541,7.541,0,0,0,.475,2.938v.2Zm-3.806-1.7a3.977,3.977,0,0,0,2.044-.563,3.362,3.362,0,0,0,1.4-1.46v-2.778h-1.795q-4.218,0-4.217,2.49a2.107,2.107,0,0,0,.715,1.7,2.75,2.75,0,0,0,1.851.614" transform="translate(-245.217 -473)" fill="#4f5358" fill-rule="evenodd"/>
    <rect id="Rectangle_11" data-name="Rectangle 11" width="2.295" height="19.052" transform="translate(-79.549 -320.806)" fill="#4f5358"/>
    <path id="Path_59" data-name="Path 59" d="M183.778,166.4a4.247,4.247,0,0,1,.724-2.4,11.171,11.171,0,0,1,2.773-2.544,12.221,12.221,0,0,1-1.613-2.358,4.587,4.587,0,0,1,.809-5,4.559,4.559,0,0,1,3.3-1.169,4.456,4.456,0,0,1,3.078,1.089,3.513,3.513,0,0,1,1.215,2.735,3.844,3.844,0,0,1-.555,2.015,7.19,7.19,0,0,1-1.926,1.944l-1.329.982,4.017,4.8a7.6,7.6,0,0,0,.847-3.586h2.07a8.655,8.655,0,0,1-1.524,5.25l2.578,3.086h-2.751l-1.207-1.422a6.315,6.315,0,0,1-2.151,1.248,7.637,7.637,0,0,1-2.511.428,6.2,6.2,0,0,1-4.241-1.4,4.679,4.679,0,0,1-1.6-3.7m5.842,3.222a4.823,4.823,0,0,0,3.337-1.388l-4.4-5.272-.411.3q-2.07,1.524-2.07,3.137a3.054,3.054,0,0,0,.948,2.346,3.665,3.665,0,0,0,2.6.88m-2.069-12.375a5.232,5.232,0,0,0,1.46,2.985l1.465-1.034a3.823,3.823,0,0,0,1.151-1.134,2.6,2.6,0,0,0,.314-1.312,1.776,1.776,0,0,0-.623-1.385,2.259,2.259,0,0,0-1.562-.554,2.02,2.02,0,0,0-1.613.689,2.572,2.572,0,0,0-.592,1.745" transform="translate(-245.217 -473)" fill="#4f5358" fill-rule="evenodd"/>
    <path id="Path_47" data-name="Path 47" d="M223.006,166.522h-7.57l-1.7,4.725h-2.455l6.9-18.062h2.083l6.909,18.062h-2.443Zm-6.85-1.956H222.3l-3.078-8.442Z" transform="translate(-245.217 -473)" fill="#4f5358" fill-rule="evenodd"/>
    <path id="Path_48" data-name="Path 48" d="M238.992,169.926a4.864,4.864,0,0,1-3.929,1.575,4.174,4.174,0,0,1-3.268-1.245,5.393,5.393,0,0,1-1.135-3.692v-8.73h2.295V166.5q0,3.048,2.481,3.048a3.437,3.437,0,0,0,3.5-1.956v-9.755h2.294v13.413h-2.184Z" transform="translate(-245.217 -473)" fill="#4f5358" fill-rule="evenodd"/>
    <path id="Path_49" data-name="Path 49" d="M249.436,154.582v3.252h2.5v1.778h-2.5v8.319a1.863,1.863,0,0,0,.335,1.211,1.4,1.4,0,0,0,1.138.4A5.617,5.617,0,0,0,252,169.4v1.859a6.842,6.842,0,0,1-1.761.246,2.854,2.854,0,0,1-2.321-.932,3.99,3.99,0,0,1-.778-2.638v-8.319h-2.448v-1.778h2.448v-3.252Z" transform="translate(-245.217 -473)" fill="#4f5358" fill-rule="evenodd"/>
    <path id="Path_50" data-name="Path 50" d="M255.355,164.417a7.936,7.936,0,0,1,.774-3.548,5.767,5.767,0,0,1,2.159-2.434,5.851,5.851,0,0,1,3.155-.856,5.666,5.666,0,0,1,4.437,1.9,7.322,7.322,0,0,1,1.689,5.051v.161a8.013,8.013,0,0,1-.749,3.518,5.717,5.717,0,0,1-2.147,2.427,5.92,5.92,0,0,1-3.205.867,5.63,5.63,0,0,1-4.42-1.9,7.263,7.263,0,0,1-1.693-5.025Zm2.307.267a5.754,5.754,0,0,0,1.033,3.586,3.51,3.51,0,0,0,5.55-.021,6.284,6.284,0,0,0,1.029-3.84,5.734,5.734,0,0,0-1.045-3.578,3.332,3.332,0,0,0-2.786-1.372,3.29,3.29,0,0,0-2.739,1.351,6.239,6.239,0,0,0-1.042,3.874" transform="translate(-245.217 -473)" fill="#4f5358" fill-rule="evenodd"/>
    <path id="Path_51" data-name="Path 51" d="M274.207,157.834l.06,1.482a4.965,4.965,0,0,1,3.984-1.736,3.836,3.836,0,0,1,3.831,2.159,5.017,5.017,0,0,1,1.744-1.562,5.119,5.119,0,0,1,2.536-.6q4.413,0,4.488,4.674v8.992h-2.294V162.4a3.091,3.091,0,0,0-.657-2.151,2.9,2.9,0,0,0-2.21-.711,3.047,3.047,0,0,0-2.121.762,3.09,3.09,0,0,0-.978,2.049v8.9h-2.307v-8.785q0-2.927-2.866-2.925a3.068,3.068,0,0,0-3.087,1.922v9.788h-2.295V157.834Z" transform="translate(-245.217 -473)" fill="#4f5358" fill-rule="evenodd"/>
    <path id="Path_52" data-name="Path 52" d="M304.2,171.246a4.9,4.9,0,0,1-.322-1.41,5.116,5.116,0,0,1-3.819,1.664,4.725,4.725,0,0,1-3.256-1.122,3.635,3.635,0,0,1-1.27-2.845,3.786,3.786,0,0,1,1.592-3.255,7.5,7.5,0,0,1,4.484-1.16h2.231v-1.055a2.586,2.586,0,0,0-.716-1.917,2.9,2.9,0,0,0-2.121-.712,3.368,3.368,0,0,0-2.061.618,1.827,1.827,0,0,0-.83,1.5h-2.308a3.189,3.189,0,0,1,.711-1.943,4.9,4.9,0,0,1,1.94-1.482,6.488,6.488,0,0,1,2.684-.547,5.292,5.292,0,0,1,3.632,1.161,4.164,4.164,0,0,1,1.364,3.192v6.177a7.562,7.562,0,0,0,.474,2.938v.2Zm-3.806-1.7a3.98,3.98,0,0,0,2.045-.563,3.359,3.359,0,0,0,1.4-1.46v-2.778h-1.795q-4.218,0-4.217,2.49a2.1,2.1,0,0,0,.716,1.7,2.745,2.745,0,0,0,1.85.614" transform="translate(-245.217 -473)" fill="#4f5358" fill-rule="evenodd"/>
    <path id="Path_44" data-name="Path 44" d="M314.456,154.582v3.252h2.5v1.778h-2.5v8.319a1.863,1.863,0,0,0,.335,1.211,1.406,1.406,0,0,0,1.139.4,5.6,5.6,0,0,0,1.092-.148v1.859a6.83,6.83,0,0,1-1.761.246,2.85,2.85,0,0,1-2.32-.932,3.984,3.984,0,0,1-.779-2.638v-8.319h-2.447v-1.778h2.447v-3.252Z" transform="translate(-245.217 -473)" fill="#4f5358" fill-rule="evenodd"/>
    <path id="Path_45" data-name="Path 45" d="M323.732,171.246h-2.294V157.834h2.294Zm-2.481-16.981a1.4,1.4,0,0,1,.339-.948,1.525,1.525,0,0,1,2.028,0,1.365,1.365,0,0,1,.347.948,1.321,1.321,0,0,1-.347.936,1.568,1.568,0,0,1-2.028,0,1.356,1.356,0,0,1-.339-.936" transform="translate(-245.217 -473)" fill="#4f5358" fill-rule="evenodd"/>
    <path id="Path_53" data-name="Path 53" d="M328.389,164.417a7.936,7.936,0,0,1,.774-3.548,5.774,5.774,0,0,1,2.159-2.434,5.851,5.851,0,0,1,3.155-.856,5.666,5.666,0,0,1,4.437,1.9,7.322,7.322,0,0,1,1.689,5.051v.161a8.013,8.013,0,0,1-.749,3.518,5.717,5.717,0,0,1-2.147,2.427,5.92,5.92,0,0,1-3.2.867,5.63,5.63,0,0,1-4.42-1.9,7.263,7.263,0,0,1-1.693-5.025Zm2.307.267a5.754,5.754,0,0,0,1.033,3.586,3.51,3.51,0,0,0,5.55-.021,6.284,6.284,0,0,0,1.029-3.84,5.734,5.734,0,0,0-1.045-3.578,3.332,3.332,0,0,0-2.786-1.372,3.291,3.291,0,0,0-2.739,1.351,6.239,6.239,0,0,0-1.042,3.874" transform="translate(-245.217 -473)" fill="#4f5358" fill-rule="evenodd"/>
    <path id="Path_54" data-name="Path 54" d="M347.262,157.834l.072,1.681a4.887,4.887,0,0,1,4.018-1.935q4.254,0,4.293,4.8v8.865h-2.294v-8.873a3.077,3.077,0,0,0-.665-2.143,2.664,2.664,0,0,0-2.028-.694,3.345,3.345,0,0,0-1.961.593,4.066,4.066,0,0,0-1.312,1.562v9.555h-2.3V157.834Z" transform="translate(-245.217 -473)" fill="#4f5358" fill-rule="evenodd"/>
    <path id="Path_39" data-name="Path 39" d="M87.187,142.541a60.333,60.333,0,0,1,0-120.664H322.354a60.333,60.333,0,0,1,0,120.664Z" transform="translate(-245.217 -473)" fill="#005b8c" fill-rule="evenodd"/>
    <path id="Path_40" data-name="Path 40" d="M322.355,140.129a57.919,57.919,0,0,0,0-115.837H87.187a57.919,57.919,0,0,0,0,115.836H322.355Z" transform="translate(-245.217 -473)" fill="#fff" fill-rule="evenodd"/>
    <path id="Path_41" data-name="Path 41" d="M87.187,135.3h0a53.093,53.093,0,0,1,0-106.185H322.354a53.093,53.093,0,0,1,0,106.185Z" transform="translate(-245.217 -473)" fill="#005b8c" fill-rule="evenodd"/>
    <rect id="Rectangle_12" data-name="Rectangle 12" width="11.808" height="38.612" transform="translate(-121.019 -385.963)" fill="#fff"/>
    <path id="Path_63" data-name="Path 63" d="M152.091,106.259l21.45-19.222H159.548l-22.487,19.3,21.465,19.316h15.011Z" transform="translate(-245.217 -473)" fill="#fff" fill-rule="evenodd"/>
    <path id="Path_55" data-name="Path 55" d="M242.87,106.344v5.5s-2.7-.206-4.65-.206c-7.511,0-8.5,3.985-8.5,6.436v.869c0,6,4.878,6.71,9.573,6.71,3.573,0,8.725-.48,8.725-.48V106.344H242.87Zm0,16.535c-.528.022-2.222.206-3.619.206-2.474,0-4.329-.756-4.329-3.756v-1.375c0-2.976,1.855-3.755,4.329-3.755,1.4,0,3.091.16,3.619.206Z" transform="translate(-245.217 -473)" fill="#fff" fill-rule="evenodd"/>
    <path id="Path_43" data-name="Path 43" d="M297.209,119.458v-.169c0-5.95-1.427-8.079-9.554-8.079-6.384,0-9.65,1.331-9.65,6.24V118.9c0,4.886,1.984,6.748,11.029,6.748a63.678,63.678,0,0,0,6.773-.363v-2.443a48.258,48.258,0,0,1-6.748.484c-2.685,0-5.442-.193-5.418-3.314v-.531h13.545Zm-13.568-2.322v-.967c0-1.838,1.282-2.879,4.087-2.879,2.951,0,4.088,1.041,4.088,2.879v.967h-8.175Z" transform="translate(-245.217 -473)" fill="#fff" fill-rule="evenodd"/>
    <path id="Path_46" data-name="Path 46" d="M261.224,120.1c3.6.288,4.925.313,4.925,1.61,0,1.778-3.147,1.513-5.237,1.513-1.922,0-5.6-.36-5.6-.36v2.474s3.94.313,7.087.313c6.654,0,9.225-.938,9.225-4.2,0-1.778-1.273-4.205-7.448-4.421-2.57-.072-4.107-.336-4.107-1.657,0-1.514,2.234-1.658,4.684-1.658,2.667,0,6.774.5,6.774.5v-2.5s-5.26-.505-8.047-.505c-3.267,0-9.08.024-9.08,4.564.023,2.475,1.753,3.988,6.822,4.348Z" transform="translate(-245.217 -473)" fill="#fff" fill-rule="evenodd"/>
    <path id="Path_42" data-name="Path 42" d="M314.612,111.235c-2.922,0-5.893.124-5.893.124l-5.132.22v14.07h5.5v-11.86a30.072,30.072,0,0,1,4.862-.122c2.849.22,2.628,2.332,2.628,4.076V125.6H322.1v-9.625c0-3.365-1.743-4.764-7.49-4.764Z" transform="translate(-245.217 -473)" fill="#fff" fill-rule="evenodd"/>
    <path id="Path_56" data-name="Path 56" d="M217.824,123.112a27.03,27.03,0,0,1-4.853.123c-2.907-.222-2.662-2.292-2.662-4.09v-7.934h-5.518v9.708c0,3.375,1.725,4.73,7.514,4.73,2.932,0,5.889-.123,5.889-.123l5.149-.2V111.211h-5.519Z" transform="translate(-245.217 -473)" fill="#fff" fill-rule="evenodd"/>
    <path id="Path_60" data-name="Path 60" d="M190.9,111.211c-2.921,0-5.893.148-5.893.148l-5.083.195v14.071h5.5V113.789a28.462,28.462,0,0,1,4.838-.148c2.9.246,2.652,2.309,2.652,4.1v7.906h5.5v-9.674c0-3.365-1.743-4.764-7.488-4.764Z" transform="translate(-245.217 -473)" fill="#fff" fill-rule="evenodd"/>
    <path id="Path_57" data-name="Path 57" d="M229.685,65.919h9.9l-9.9,8.233v3.232h16.67V74.178h-9.926l9.951-8.259V62.945H229.685Z" transform="translate(-245.217 -473)" fill="#fff" fill-rule="evenodd"/>
    <rect id="Rectangle_10" data-name="Rectangle 10" width="5.631" height="14.511" transform="translate(-44.28 -410.127)" fill="#fff"/>
    <path id="Path_61" data-name="Path 61" d="M200.938,58.128v2.61h5.63V58.077h-5.63Z" transform="translate(-245.217 -473)" fill="#fff" fill-rule="evenodd"/>
    <path id="Path_62" data-name="Path 62" d="M180.682,63.175V77.384h5.684V65.94c1.28-.127,2.457-.076,4.658-.076l3.456.153L194.558,63c-1.229-.025-6.144-.051-8.219-.051-2.712.051-5.657.256-5.657.256Z" transform="translate(-245.217 -473)" fill="#fff" fill-rule="evenodd"/>
    <path id="Path_66" data-name="Path 66" d="M148.6,64.945c-1.47-1.739-3.968-1.91-7.4-1.983a73.248,73.248,0,0,0-9.3.466V66a67.339,67.339,0,0,1,7.174-.685c2.522,0,4.628.416,4.7,2.325v1.078s-2.472.024-4.333.024c-6.146,0-8.864.93-8.864,4.138,0,4.383,5,4.506,9.477,4.506,3.035,0,6.071-.2,9.107-.393V72.634c.025-3.624.221-6.734-.587-7.714Zm-4.8,9.892c-.686.049-2.522.171-3.8.171-1.713,0-4.04.025-4.04-1.958s1.812-2.156,3.575-2.156H143.8v3.943Z" transform="translate(-245.217 -473)" fill="#fff" fill-rule="evenodd"/>
    <path id="Path_58" data-name="Path 58" d="M218.352,58.077l-5.4,1.157V73.086c0,2.639.628,4.3,4.2,4.3h6.134V74.744h-2.892c-1.382,0-2.036-.528-2.036-1.96V66.123H223.3V63.256h-4.977V58.077Z" transform="translate(-245.217 -473)" fill="#fff" fill-rule="evenodd"/>
    <path id="Path_64" data-name="Path 64" d="M168.783,74.847a26.973,26.973,0,0,1-4.853.122c-2.908-.221-2.662-2.291-2.662-4.089V62.946H155.75v9.708c0,3.375,1.724,4.73,7.514,4.73,2.932,0,5.889-.123,5.889-.123l5.149-.2V62.946h-5.519Z" transform="translate(-245.217 -473)" fill="#fff" fill-rule="evenodd"/>
    <path id="Path_69" data-name="Path 69" d="M99.246,38.771H87.438V77.384h36.738l.023-9.116H99.268Z" transform="translate(-245.217 -473)" fill="#fff" fill-rule="evenodd"/>
    <rect id="Rectangle_9" data-name="Rectangle 9" width="400.834" height="192.589" transform="translate(-245.217 -473)" fill="none"/>
  </g>
</svg>
